<?xml version="1.0" encoding="UTF-8"?>
<svg xmlns="http://www.w3.org/2000/svg" version="1.1" viewBox="0 0 717.1 717.1">
  <defs>
    <style>
      .cls-1 {
          fill: #fff;
          stroke: #000;
          stroke-width: 3;
      }
    </style>
  </defs>
  <!-- Generator: Adobe Illustrator 28.7.1, SVG Export Plug-In . SVG Version: 1.2.0 Build 142)  -->
  <g>
    <g id="Layer_1">
      <g id="v2">
        <g id="dude2">
          <path class="cls-1" d="M574.9,311c-3.5,2.7-6.8,5.2-10.9,6.4-2.2.7-4,1.9-5.5,3.7-2,2.3-2.3,4.6-.9,7.3.5,1.1,1.2,2.1,1.8,3.1.4.8.9,1.5,1.2,2.3,1.5,3.9-.7,6.7-4.9,6.3-1.2-.1-2.4-.4-3.5-.5-2.9-.4-5.8-.5-8.5.6-3.3,1.4-3.9,4-1.4,6.6,1.2,1.2,2.5,2.2,3.8,3.4,1.2,1.1,2.5,2.3,3.5,3.6,2.3,3.1,2.1,6.5-.4,9.5-1,1.2-2.3,2.3-3.6,3.1-2.9,1.9-4.1,4.6-3.8,8,0,1,0,1.9,0,2.9-.3,3.3-2.8,5.6-6.1,5.5-1.3,0-2.7-.5-4-.7-1.6-.3-3.3-.8-4.9-.8-3.7,0-6.1,2.5-6.2,6.2,0,1,0,2,.2,2.9.5,2,0,3.8-1.5,5-2.6,2.5-3.6,5.1-2.6,8.8.8,2.9-.5,5-3.3,6.5-2,1-4.1,1.3-6.3,1-3.8-.4-7.6-1-11.4-1.3-1.6-.1-3.4,0-5,.3-3.3.6-5.1,2.9-5.2,6.3-.2,6.2,4.1,11.3,10.3,12,2.8.3,4.9,1.4,6.4,3.9,3,4.8,5.6,5.1,10,1.6,1-.7,1.9-1.5,2.9-2.2,3-2.1,6.2-2.5,9.5-1,1.5.6,2.9,1.3,4.3,2.1,6.7,3.8,13.9,6.5,21.4,8.1,8.3,1.8,15.9,5.3,23.5,8.7,2.7,1.2,5.3,2.6,8,3.9,4.5,2.3,8,5.7,10.7,10,.8,1.3,1.7,2.7,2.5,4.1-.3,0-.5.2-.6.1-10-6.2-20.7-10.6-32.3-12.8-8.6-1.7-17.1-4-25.7-5.7-5.1-1-10.3-1.3-15.4-2.3-13.4-2.4-26.1-6.7-37.1-15.3-9.6-7.5-18.5-15.7-25.3-26-1.2-1.8-2.6-3.5-3.9-5.1-3-3.7-6.9-5.9-11.6-6.5-2.9-.3-5.6-1.1-8-2.9-1.7-1.2-3.1-2.7-4.1-4.6-1-1.8-1.3-3.6-.7-5.5.5-1.8.8-3.6,1.3-5.3.8-3,2.8-6,7.1-6,.7,0,1.4,0,2.2-.1,3.3-.2,6.2-1.4,8.7-3.6,1.7-1.5,3.5-3,5.4-4.4,2.1-1.6,4.5-2.7,7.2-3,5.3-.7,9.6-3.4,13.4-7,2.1-2,4.1-4,6.2-6,3-2.9,6.6-4.4,10.9-4.3,3.5.1,6.8-.9,9.8-2.7,4.1-2.4,8-5,11.7-8,2.9-2.3,5.9-4.5,9-6.3,9.8-5.6,20-10.3,31.1-12.9,5.6-1.3,16.3-1.9,21-1h0ZM142.7,311.4c3.4,2.4,6.7,4.9,10.8,6.1,2.2.7,4,2,5.4,3.8,1.7,2.1,2.2,4.4.8,6.9-.6,1.1-1.3,2.2-1.9,3.3-.5,1-1.1,2-1.4,3-.9,3.3,1,5.8,4.4,5.7,1.3,0,2.5-.4,3.8-.5,2-.1,4-.4,6-.2,1.5.2,3.1.8,4.4,1.6,1.7,1.1,2,2.9.8,4.6-.7,1-1.7,1.9-2.6,2.8-1.5,1.4-3.1,2.5-4.4,4-3.7,4-3.4,8.6.7,12.1,1,.8,2,1.5,3,2.3,2,1.6,3.1,3.6,3,6.2,0,1.2,0,2.4,0,3.6.2,3.6,2.9,6.1,6.5,5.9,1.3,0,2.5-.5,3.8-.8,1.8-.3,3.6-.8,5.4-.7,3.2.1,5.4,2.5,5.6,5.8,0,1,0,2.1-.1,3.1-.3,2.3.4,4.2,2,5.9.4.5.9.9,1.3,1.4,1.1,1.2,1.5,2.6,1.2,4.2-.1.7-.3,1.4-.4,2.1-.6,3.1.4,5.3,3.2,6.8,1.9,1,3.9,1.3,6.1,1.1,2.5-.2,5.1-.6,7.6-.9,2.9-.3,5.9-.9,8.8-.3,2.4.5,4.4,1.7,5.1,4.2,1.7,5.6-2.7,13.5-8.4,14-4.1.3-6.8,1.9-8.9,5.4-2,3.2-4.7,3.4-7.8,1.3-1.3-.9-2.6-1.9-3.8-2.9-3.1-2.3-6.4-2.7-9.9-1.1-2,.9-4,2.1-6,3-4,1.8-8,3.6-12.1,5.1-3.1,1.1-6.5,1.7-9.7,2.6-9.5,2.5-18.2,6.8-27.1,10.9-6.1,2.8-10.7,7.1-14,13-.4.8-.9,1.5-1.4,2.3.9-.1,1.6-.5,2.2-.9,8.3-4.8,16.8-8.8,26.3-10.8,8.5-1.8,17-3.9,25.5-5.7,5.2-1.1,10.5-2,15.8-2.7,5.2-.7,10.3-1.6,15.2-3.1,7.2-2.2,14.3-4.6,20.6-8.9,11.7-8,22.2-17.2,30.2-29.1,1.6-2.4,3.4-4.6,5.3-6.8,2.7-3.1,6.1-4.8,10.1-5.5.8-.1,1.6-.3,2.4-.4,2.9-.3,5.4-1.6,7.5-3.5,3.3-2.9,5-6.4,3.3-10.9-.4-1.1-.5-2.3-.8-3.5-.8-3.7-3.2-5.9-6.9-6.2-.6,0-1.3,0-1.9-.1-3.6-.1-6.7-1.4-9.4-3.8-1.8-1.6-3.7-3.1-5.6-4.6-1.7-1.3-3.7-2.3-5.9-2.6-5.9-.7-10.7-3.6-14.8-7.7-1.8-1.8-3.6-3.5-5.3-5.2-3.2-3.1-7-4.7-11.5-4.5-3.2.1-6.2-.6-8.9-2.4-3.9-2.5-7.9-5-11.5-7.8-4.5-3.5-9.2-6.6-14.2-9.2-3.2-1.6-6.4-3.2-9.7-4.7-9.8-4.4-20-7.2-30.8-7.1-2.3,0-4.6.1-6.9.2.1.4.1.6.2.7h0ZM237.8,227.3c.2.4.3.9.6,1.3,4.5,6,8.9,12.1,13.7,17.9,4.8,5.8,8.8,12,12.1,18.7,1.6,3.3,2.7,6.6,2.9,10.3.2,2.5,1.1,4.8,2.8,6.8,1.4,1.5,3,2.9,4.3,4.5,2.7,3,5.4,6.1,7.9,9.3,1.9,2.4,1.5,4.5-.8,6.6-.6.6-1.4,1-2.1,1.6-1,1-1,2,.2,2.8.7.5,1.5,1,2.3,1.3,4.4,1.7,7.9,4.5,10.8,8.1.8.9,1.6,1.7,2.6,2.6,4.4-10.6,11.5-18.7,20.8-24.9,14.3-9.5,30.1-13.8,47.3-12.7,14.3.9,27.4,5.3,39.1,13.5,8.5,6,15.2,13.6,19.3,23.3,0,.2.2.4.5.8,1.2-1.4,2.3-2.5,3.4-3.7,2.5-3,5.5-5.3,9.2-6.7,1-.4,1.9-.9,2.8-1.4,1.4-.9,1.4-2,.2-3.2-.6-.6-1.4-1-2-1.6-1.9-1.8-2.2-3.8-.9-6,.3-.5.7-1,1.1-1.6,2.6-3.7,5.7-6.9,9-9.9,3.1-2.8,5.1-6.1,5.3-10.4.1-2.9,1-5.5,2.2-8,3.2-6.9,7.2-13.3,12-19.2,5-6.1,9.6-12.5,14.4-18.8.3-.4.4-.9.6-1.3-.9.6-1.5,1.3-2.2,2-12.5,14.7-24.9,29.4-37.5,44-2.4,2.9-5,5.6-7.7,8.2-1.5,1.5-3.3,2.8-5.1,3.9-2.1,1.3-5.2,1-6.7-.5-1.9-1.8-2.3-4-1.3-6.4.8-1.9,1.6-3.8,2.5-5.7,10.8-24.6,21.6-49.1,32.5-73.7.2-.4.3-.8.5-1.2-.7.4-1.1,1-1.5,1.6-13.1,19.9-26.2,39.8-39.4,59.6-2.1,3.1-4.2,6.2-6.3,9.4-1,1.5-2.3,2.4-4,2.8-4.5,1.1-8.8-1.5-9.9-6-.4-1.5-.8-2.9-1.4-4.3-2-4.7-.7-9.5,3.6-12.4,1-.7,2-1.3,2.9-2.1,2.2-1.9,2.5-4.1.8-6.6-1-1.4-2-2.7-3-4.1-2.5-3.6-3.4-7.6-2.2-11.9.7-2.5,1.5-5.1,2.7-7.4,4.6-9,9.5-18,14.2-26.9.3-.5.5-1.1.8-1.6-.5.1-.8.4-1,.7-4.2,5.3-8.5,10.6-12.5,16.1-3.9,5.3-7.5,10.8-11.1,16.2-1,1.5-1.6,3.3-2.3,5-.7,1.9-.5,3.8.5,5.5.5.9,1,1.8,1.5,2.7,2.2,4.6,1.4,8.5-2.5,11.8-.4.3-.8.6-1.1.9-.9.9-1.3,2-1,3.3.2.7.4,1.4.6,2.1.7,2.4.8,4.7.2,7.1-.6,2.3-2,3.9-4.5,4.1-1.5.1-3.2,0-4.7-.5-1.3-.3-2.4-1.2-3.6-1.8-4.2-1.9-5.7-5.3-5.9-9.6-.2-3.2-.4-6.4-.6-9.6-1.4-22-2.9-44-4.3-66-.3-4.1-.6-8.2-.9-12.3-.7,6.7-1.1,13.4-1.6,20.1-.9,13.7-1.8,27.4-2.7,41.2-.6,9.3-1.3,18.7-2,28-.2,2.2-.7,4.4-2.4,5.9-2.6,2.3-5.5,4.1-9,4.7-4.3.7-7-1.4-7.3-5.8-.1-1.9,0-4,.6-5.9.7-2.5.6-4.6-1.8-6-.1,0-.2-.2-.4-.3-3.1-2.7-4-6.4-2.5-10.2.4-1,.8-1.9,1.4-2.8,1.9-2.8,1.8-5.7.4-8.6-.7-1.4-1.3-2.8-2.1-4-2.5-3.9-5-7.8-7.7-11.5-5.2-6.9-10.6-13.6-15.9-20.5-.1-.1-.3-.2-.8-.5.3.6.4.9.6,1.2,4.7,8.9,9.4,17.8,14.2,26.7,1.5,2.8,2.7,5.8,3.4,8.9.7,3.7.4,7.2-1.6,10.4-1.1,1.7-2.3,3.3-3.5,4.9-2,2.8-1.8,5.1,1,7.2,1.1.8,2.3,1.5,3.4,2.3,3.1,2.3,4.5,6.7,3.3,10.3-.7,2.3-1.4,4.6-2.2,6.8-1.1,3-3.3,4.7-6.4,5.2-3,.5-5.5-.4-7.3-3-.8-1.1-1.5-2.2-2.3-3.4-14.3-21.7-28.6-43.4-43-65-.4-.6-.9-1.3-1.3-1.9.2,1.6.8,2.9,1.4,4.1,10.8,24.5,21.6,49,32.4,73.5.6,1.3,1,2.7,1.4,4,.4,1.2.2,2.4-.4,3.5-1.3,2.7-4.5,3.9-7.3,2.5-1.8-.9-3.5-2-4.9-3.4-3.3-3.3-6.6-6.8-9.6-10.3-12.2-14.3-24.4-28.6-36.5-42.9-.5-.6-1.1-1.1-1.7-1.6h0c0,0,0,0,0,0ZM300.3,323.5c1.5,1.4,3.1,2.8,4.4,4.4,5.8,7.2,12.5,13.5,20.2,18.6,1.6,1.1,3.1,2.5,4.6,3.8,4.8,4.2,9.2,8.9,15,11.8,2.7,1.4,4.8,3.4,6.4,6,3.4,5.3,12.1,5.3,15.4,0,1.6-2.5,3.6-4.5,6.2-5.8,5.4-2.6,9.5-6.8,13.8-10.6,2.8-2.5,5.5-4.8,8.6-6.9,6-4.1,11.1-9.1,15.8-14.6,2.4-2.8,4.8-5.5,7.7-7.9.7-.6,1.4-1.2,2-1.9-.2-.6-.4-1-.5-1.3-4.8-10.9-12.6-19-22.7-24.9-15.6-9.1-32.4-12.3-50.3-9.6-12.5,1.9-23.9,6.5-33.8,14.4-7.2,5.7-12.8,12.7-16.4,21.5,1.3,1.1,2.5,2,3.5,3.1h0ZM574.3,204.1c-8.6,2.7-16.6,6.7-24.5,11-4.1,2.2-8.3,4.3-11.9,7.1-6.1,4.6-11.9,9.6-17.6,14.8-7.3,6.7-14.4,13.7-21.4,20.6-7.1,7-13.9,14.4-19.8,22.4-3.7,4.9-7.7,9.6-12,14-8.7,9-16.8,18.4-24.2,28.5-1.5,2.1-3,4.1-4.6,6.1-1.5,1.8-2.4,1.9-4.2.3-1.1-1-2-1-3.2-.3-3.1,1.7-3.9,3.3-3.1,6.9.2.9.6,1.6.8,2.5.6,2,1.2,4,1.7,6,.3,1.3.5,2.7.8,4,1.7,6.5,5.6,8.4,12,6.1,7.5-2.7,14.4-6.4,21.1-10.7,2.2-1.5,4.3-3.1,5.7-5.4,2.1-3.4,5.1-5.5,8.8-6.7,3.1-1,6.3-1.9,9.4-2.8,5.1-1.4,10-3.3,14.3-6.5,6.4-4.8,13.6-8.1,21.2-10.4,5-1.5,10.2-2.8,15.2-4.3,9.6-2.9,19.4-4.1,29.4-3.2.6,0,1.2,0,2.3,0-1.6-1.2-2.8-2-3.9-2.8-1.7-1.4-2.1-2.7-1.1-4.6.7-1.3,1.8-2.4,2.8-3.5,1.4-1.5,3.1-2.8,4.4-4.4,2.3-3.1,1.4-5.8-2.3-7-2.4-.9-4.8-1-7.3-.5-4.4.9-8.2,3.1-11.6,5.9-4.1,3.4-8,7.1-12.1,10.5-1.6,1.3-3.2,2.7-5.1,3.5-4,1.7-7,.3-8.7-3.6-.2-.4-.3-.7-.5-1.1-.6-1.6-1.8-2.5-3.5-2.4-2.1.1-4.3.3-6.4.7-3.7.7-6.8,2.7-10,4.5-2.4,1.3-5,2.5-7.6,3.4-3.9,1.4-7.3-1.4-6.7-6.3.3-2.5,1.4-4.8,3.4-6.4,1.9-1.5,4-2.9,6.1-4.2,1.4-.9,3-1.5,4.5-2.2,2.3-1.1,3.8-2.9,4.5-5.3.4-1.3.9-2.6,1.3-3.9,1.7-5.5,5-9.7,9.7-13,6.2-4.3,13.1-6.9,20.5-8.2,2.7-.5,5.5-1.1,8.1-2,1.5-.5,2.9-1.4,4.1-2.4,1.5-1.3,1.4-2.8,0-4.2-1-.9-2.1-1.7-3.2-2.5-1.4-1-2.8-1.8-4.2-2.8-2.8-2.2-3.3-4.6-1.7-7.8,1.2-2.3,3-4.1,5.2-5.5,1.6-1.1,3.3-2,4.9-3,2.1-1.3,3.8-3,4.7-5.3,1.7-4.4,5-7.1,9.3-8.7,2-.7,3.9-1.8,5.8-2.8,1-.5,2-1.3,2.6-2.8-1,.3-1.6.4-2.3.6h0ZM147.5,304.1c.9,0,1.9,0,2.9-.1,7.3-.6,14.6-.2,21.7,1.6,7.5,1.9,15,4,22.4,6.2,6.5,2,12.8,4.7,18.3,8.7,5.6,4.1,11.7,6.7,18.4,8.4,3.3.9,6.6,2,9.8,3.2,2.4.9,4.3,2.5,5.6,4.6,1.9,3.1,4.6,5.2,7.6,7.1,6.2,3.9,12.6,7.2,19.4,9.8,1.9.7,3.8,1.1,5.9,1,2.1-.1,3.8-1,4.7-2.8.9-1.8,1.8-3.8,2.2-5.8.7-3.1,1.1-6.3,2.6-9.2.3-.6.5-1.4.6-2.1.6-2.5,0-4.5-2.4-5.9-2.1-1.3-2.4-1.4-4.4.2-1.4,1-2.2,1.1-3.4-.1s-1.5-1.7-2.1-2.6c-8.4-11.6-17.5-22.6-27.5-32.9-4.2-4.3-8-8.9-11.6-13.7-6.5-8.5-13.6-16.5-21.4-23.9-4.7-4.4-9.5-8.8-14-13.5-6.8-7-14.2-13.4-21.9-19.4-1.5-1.2-3.1-2.2-4.8-3.2-3.2-1.9-6.4-3.7-9.6-5.4-7.6-4-15.2-7.9-23.4-10.4-.7-.2-1.5-.4-2.6-.7,1,1.8,2.2,2.6,3.6,3.3,2.1,1,4.2,2,6.3,2.8,3.5,1.4,6.1,3.7,7.6,7.3,1.3,3.2,3.6,5.4,6.6,7.1,1.6,1,3.4,1.9,4.8,3.1,1.5,1.4,2.9,3,3.9,4.8,1.6,2.9,1,5.3-1.6,7.4-1.1.8-2.3,1.5-3.4,2.3-1.4,1-2.8,1.9-4,3-1.6,1.5-1.6,3.1,0,4.5,1.1,1,2.5,1.8,3.9,2.2,2.7.8,5.4,1.5,8.1,2,7.8,1.4,15.1,4.2,21.5,9,4,3,6.8,6.7,8.4,11.4.6,1.7,1.1,3.3,1.7,5,.7,2.2,2.1,3.9,4.2,5,1.5.7,3,1.5,4.5,2.2,2.4,1.1,4.6,2.5,6.5,4.5,2.1,2.2,3.4,4.8,3.2,8-.2,3.4-2.7,5.4-6.1,4.7-1.6-.3-3.1-.8-4.5-1.5-2.1-1-4.1-2.2-6.1-3.4-3.8-2.3-7.9-3.5-12.2-3.8-3.6-.2-4.4.2-5.8,3.6,0,.2-.2.4-.3.7-1.3,2.7-3.2,4-6.2,3.5-1.7-.3-3.3-1-4.8-1.9-1.2-.7-2.2-1.8-3.3-2.8-3.9-3.4-7.8-6.9-11.8-10.2-2.7-2.3-5.8-4-9.2-5.1-3.2-1-6.4-1.2-9.6,0-3.4,1.3-4.3,3.9-2.1,6.8,1.2,1.6,2.9,2.9,4.3,4.4,1,1.1,2.2,2.1,2.9,3.4,1.1,2.1.6,3.7-1.1,4.8-1.1.7-2.1,1.6-3.2,2.4,0,.1.1.3.2.5h0ZM360.2,550.6c.9-1.7,1.8-3.4,2.5-5.2,3-7.9,4.6-16.1,5.2-24.5.6-7.2,1.2-14.5,2.1-21.7,1.9-15.6,4-31.2,5.9-46.8.1-1,.1-1.9.2-2.9-.8.7-1.1,1.5-1.5,2.3-2.4,5.7-4.8,11.5-7.3,17.2-.7,1.7-1.7,3.3-2.9,4.6-1.8,2.1-4.2,1.5-4.8-1.2-.4-1.8-.5-3.8-.2-5.7,1.3-9.3,2.8-18.6,4.3-28,1.1-6.7,1.7-13.5.8-20.3,0-.6,0-1.3-.1-1.9,0-.5,0-1.1,0-1.6,1.9,6.5,2.5,13.1,1.7,19.7-1,8.6-2.3,17.1-3.5,25.6-.5,3.4-.8,6.8-1.1,10.2,0,.8-.1,1.7.9,2.4,1.9-1.4,2.7-3.5,3.4-5.4,3.2-8.4,6.5-16.9,9.5-25.4,3.1-8.8,4.1-17.9,3.1-27.2-.6-5.6-2-11-5.3-15.7-.3-.5-.8-.9-1-1.2-2,2.7-3.7,5.4-5.8,7.8-2,2.3-4.5,4-7.5,4.9-4.3,1.2-8-.5-9.9-4.6-1.1-2.6-1.4-5.4-1.1-8.2.4-3.5,1.4-6.9,3-10.1.3-.5.4-1.1.7-1.9-1.3.2-2.2.2-3.1.4-10.8,2.7-19,9-24.6,18.5-3,5.1-4.6,10.7-4.4,16.7.1,2.7.2,5.4.4,8.1.6,9.2,1.2,18.3,2,27.5.3,3.3,1.1,6.6,1.8,9.9.2,1.1.6,2.3,1.9,3.3.2-2.3.5-4.2.7-6.2.8-8,1.7-15.9,2.2-23.9.4-6.2,1.8-11.9,5.1-17.2,2.4-4,4-8.5,5.9-12.8.2-.5.5-1.1.7-1.7.1,0,.3,0,.5.1-.4,1.6-.6,3.3-1.2,4.8-1.8,4.5-3.6,8.9-5.6,13.2-1.4,3.2-2.3,6.4-2.6,9.9-.6,7.6-1.5,15.1-2.2,22.6,0,.8,0,1.6,0,2.8.7-.6,1.1-1,1.5-1.3,3.6-2.9,7.2-5.8,10.9-8.7.9-.7,2-1.3,3.1-1.8,2.8-1.2,4.7-.4,5.6,2.4.4,1.4.7,2.8.8,4.2.7,8,1.3,16.1,1.9,24.1.7,9.8,1.4,19.6,2.1,29.4.7,8.9,1,17.9.4,26.8-.3,4-.1,8.1,0,12.2,0,1.4.3,2.8,1.5,4.1,1.6-.6,2.5-1.7,3.2-3h0ZM589.3,474.4c-1.5-.8-3.1-1.7-4.7-2.4-11-5-22.7-7.7-34.6-9.2-6.8-.9-13.7-1.5-20.3-3.5-4.5-1.3-9-2.1-13.7-2.4-2.7-.1-5.4-.3-8.1-.6-7.5-.9-14.7-3-21.8-5.5-3.8-1.4-7.2-3.4-10.3-6-1.8-1.5-3.5-3.1-5.2-4.6-5.2-4.7-9.7-10.1-14.1-15.7-4-5.1-8.7-9.3-14.7-12-2.2-1-4.1-2.7-6.1-4.2-1-.7-1.8-1.6-2.7-2.4-4.9-4.3-10.5-5.5-16.8-4.1-2.3.5-4.2,1.7-6,3.3-1.9,1.7-3.9,3.4-6.1,4.6-4.8,2.7-9.4,5.6-15,7.4,3.2,2.1,5.3,4.9,7.1,8,.9,1.5,1.8,3,2.7,4.5,3.4,5.5,8.3,8.7,14.6,9.8,2.7.5,5.4.8,8,1.5,9.1,2.2,16.9,6.4,22,14.6.5.8,1.1,1.6,1.8,2.3,1,1,2.1,2,3.3,2.7,1.8,1.1,3.7,1,5.4-.4.8-.6,1.6-1.4,2.4-2,1.9-1.4,3.9-1.4,5.7.1,1,.8,1.8,1.8,2.6,2.8.9,1.1,1.6,2.4,2.5,3.5,4.1,5.1,10.6,6.1,16.1,2.6.6-.4,1.2-.8,1.8-1.2,3.1-1.8,6.1-1.6,8.9.7,1.4,1.1,2.4,2.5,3.7,3.8,1.1,1.1,2.1,2.2,3.4,3,2.1,1.4,5.2,1.8,7.5-.4s4.4-1.7,6.1,1c.4.6.7,1.3,1.1,1.9,1.7,2.4,3.9,2.7,6.1.8.9-.7,1.6-1.5,2.5-2.3,1.4-1.2,3-1.9,4.9-1.5,1.4.3,2.7.9,3.9,1.6,1.6.9,3,2.1,4.7,3,3.8,2.1,7.7,2.4,11.5-.2,2.7-1.8,5.8-2.7,9-3.1,2.3-.3,4.5,0,6.4,1.4,3.1,2.5,6.6,2.7,10.2,1.5,4.8-1.6,9.6-2.9,14.9-1.9-.3-.4-.5-.7-.6-.8h0ZM140.1,476.4c.8.2,1.5.5,2.3.7,3.6,1.1,6.9.9,10-1.5,1.8-1.5,4-1.8,6.4-1.5,3.6.5,6.8,1.6,9.8,3.5,2.7,1.7,5.6,1.9,8.5.7,1.6-.7,3.1-1.5,4.7-2.4.9-.5,1.7-1.2,2.6-1.8,3.5-2.3,6.3-2,9.3.8.6.6,1.2,1.3,1.9,1.8,1.9,1.5,3.9,1.3,5.5-.6.5-.6.9-1.3,1.3-2,1.9-3.1,3.8-3.5,6.6-1.1,1.9,1.6,3.9,1.7,6,.8,1.9-.7,3.2-2.1,4.5-3.5,1.2-1.3,2.3-2.7,3.6-3.8,2.9-2.4,5.9-2.6,9.1-.7,1,.6,1.9,1.2,2.8,1.8,1.8,1.1,3.7,1.6,5.7,1.4,4.1-.3,7.3-2.1,9.7-5.4,1.1-1.5,2-3.1,3.2-4.5,2.5-2.9,4.9-3.1,7.9-.7.3.2.6.5.9.8,2.5,2.1,4.8,2.2,7.3,0,1.6-1.3,3-2.9,4.1-4.7,3.5-5.4,8.5-9,14.3-11.6,4-1.8,8.3-2.7,12.7-3.4,3.9-.6,7.7-1.5,11.1-3.6,2.5-1.6,4-3.6,4.2-6.6.2-3.4.4-6.9.5-10.3.1-4.4-1.7-7.9-5.2-10.5-1.7-1.2-3.1-2.7-4.8-4-1.1-.9-2.3-1.9-3.6-2.3-3.6-1.3-7.3-1.6-11.1-.7-3.6.8-6.5,2.9-9.2,5.4-2.5,2.3-5.1,4.4-8.2,5.8-4.2,1.9-7.9,4.6-10.9,8.1-1.9,2.1-3.8,4.3-5.5,6.6-4.9,6.4-10.7,12.1-17,17.2-2.6,2.1-5.6,4.1-8.8,5.3-9,3.6-18.3,6.2-28.1,6.5-5.6.2-11.1,1-16.6,2.5-3.1.8-6.2,1.7-9.3,2.2-5.9.9-11.9,1.5-17.8,2.4-9.6,1.6-19.1,4-28,8.2-1.8.8-3.5,1.8-5.2,2.7,5-.1,7.9.2,12.7,1.7h0ZM576,201.8c-.4,0-.8,0-1.2.1-10.7,2.6-21.4,5.4-31.3,10.5-4.8,2.4-9.9,4.6-14.2,7.9-4.3,3.3-8.7,6.5-13,9.8-1.7,1.3-3.5,2.6-5,4.1-7.8,7.1-15.5,14.3-23.3,21.5-1.5,1.4-2.8,3-4.1,4.6-5.8,7.1-11.6,14.2-18.4,20.6-1,1-1.9,2.2-2.8,3.3-1.5,1.8-2.9,3.6-4.3,5.4-2,2.4-4.1,4.7-6,7.2-3.3,4.4-7.3,8-11.5,11.5-1.8,1.5-3.9,2.5-6.2,2.9-3.4.7-6,2.5-8.2,5.1-1.6,1.9-3.1,3.9-4.7,5.8-4,4.9-8.2,9.6-13.6,13-1.5.9-2.8,2.1-4.1,3.3-3.2,3-6.4,6-9.5,9.1-2.9,2.9-6,5.5-9.6,7.5-1.2.7-2.3,1.5-3.4,2.3-5.2,4.3-10.4,8.5-15.4,12.9-4.5,4-9.7,3.6-13.5,1.2-2.8-1.7-5.4-3.8-7.7-6-3.8-3.7-7.9-7.1-12.3-9.9-4.3-2.8-8.2-5.8-11.8-9.4-2.2-2.3-4.5-4.5-6.9-6.7-1.7-1.6-3.4-3.2-5.3-4.5-5.1-3.3-9.1-7.7-13-12.3-1.8-2.1-3.4-4.2-5.1-6.4-2.2-2.7-4.9-4.4-8.4-5.2-1.9-.4-3.8-1.3-5.4-2.4-2.6-1.9-5.2-3.9-7.2-6.2-5.3-6.1-10.3-12.4-15.5-18.6-1.1-1.4-2.3-2.6-3.5-3.9-1-1-2.1-1.9-3.1-3-4-4.5-8.1-8.9-11.8-13.6-3.6-4.6-7.7-8.8-12-12.7-9.7-9.1-19.2-18.4-30.3-25.7-1-.6-1.9-1.5-2.8-2.3-3-2.7-6.4-4.8-9.9-6.7-10.2-5.5-21.1-9.6-32.3-12.5-2.9-.8-5.9-1.4-8.8-2,.7.6,1.4.8,2.1,1.1,7.8,2.4,15.4,5.3,22.6,9.2,3.7,2,7.3,3.9,10.9,6.1,2.7,1.6,5.5,3.3,7.9,5.3,7.3,5.9,14.6,12,21.8,18.1,1.8,1.5,3.3,3.3,4.9,4.9,3.2,3.4,6.4,6.9,9.6,10.4,1.9,2,3.8,3.9,5.6,5.9,3.6,3.8,7.1,7.8,10.8,11.5,4.2,4.3,8.1,8.8,11.7,13.6,6.7,8.9,13.8,17.4,21.8,25.2,4,3.9,7.5,8.1,9.9,13.1.4.9,1.1,1.7,1.6,2.5,3.4-2.4,4.6-2.5,7.9-.2,1.3.9,2.4,2.3,3.5,3.5,1.7,1.8,3.2,3.8,5,5.5,2.1,2,4.4,3.7,6.4,5.7,7.1,7.4,15,13.9,23.5,19.6,1.8,1.3,3.6,2.7,5.2,4.2,4.3,3.8,8.6,7.7,12.9,11.5.7.6,1.4,1.1,2.1,1.6,3.2,2.1,6,3.5,9.8-.4,0,0,.1-.1.2-.1,3.4-2.6,7-4.1,11.4-2.3,1.6.6,3.3.3,4.7-.9,3.6-3.2,7.3-6.5,11-9.6,1.8-1.5,3.6-2.9,5.5-4.3,6.9-4.9,13.7-10,19.7-16.1,2.8-2.9,5.7-5.6,8.8-8.1,2.2-1.9,4.3-3.8,5.9-6.3,1.1-1.8,2.7-3.1,4.6-4.1,2.2-1.2,4.4-1.6,6.3.6.1.1.4.1.8.2.5-.8,1.1-1.6,1.5-2.4,2.4-5,5.8-9.2,9.8-12.9,7.1-6.7,13.4-14.2,19.3-22,5.6-7.2,11.5-14.1,17.9-20.6,4.6-4.6,8.9-9.5,13.3-14.2,2.8-3,5.7-6.1,8.5-9.1,1.8-1.9,3.5-4,5.5-5.7,7.6-6.4,15.2-12.7,22.9-19,1.7-1.4,3.6-2.6,5.5-3.8,3.5-2,7-3.9,10.5-5.9,5.6-3,11.3-5.7,17.3-7.7,2.6-.9,5.3-1.8,7.9-2.7v-.4h0ZM610.7,491.2c-.2-.5-.4-1-.6-1.5-4.2-8.8-10.5-15.9-19-20.7-4.7-2.6-9.7-4.9-14.6-7.2-2.4-1.1-4.9-2.1-7.4-2.8-10.5-2.7-21-5-31.7-6.3-11.4-1.4-22.5-3.6-33.4-7.5-18.6-6.8-34-17.9-45.2-34.4-1.1-1.6-2.2-3.3-3.5-4.9-1.1-1.4-2.4-2.8-3.7-4.1-2.3-2.3-5-3.8-8.2-4.1-4.2-.4-7.6-2.4-10.8-4.8-4-3.1-5.2-6.8-3.7-11.6.5-1.8,1-3.7,1.4-5.6.8-4.7,3.6-7.5,8.4-8.3,1.2-.2,2.4-.4,3.6-.4,2.6,0,4.8-1,6.7-2.8,1.7-1.5,3.4-3,5.1-4.4,2.1-1.7,4.4-2.9,7-3.5,6.3-1.5,11.8-4.5,16.5-8.9,1.2-1.1,2.4-2.3,3.7-3.5,3.1-3,6.8-4.6,11.1-5,2.6-.2,5-.9,7.3-2.2,5.8-3.3,11.6-6.5,17-10.3,3.5-2.4,7.1-4.6,10.7-6.8,5-3,10.4-5.3,16-6.9,7.1-2.1,14.4-2.9,21.7-3.4,9-.6,17.9.6,26.6,2.5.5.1,1,.2,1.5.3-3.2-2.2-6.7-3.4-10.3-4.3-9.8-2.4-19.7-2.9-29.8-1.6-9,1.2-17.8,3-26.2,6.4-5.8,2.3-11.5,4.8-17.2,7.3-1.5.7-3.1,1.4-4.5,2.4-5.4,3.8-11.5,6.2-17.8,8.2-3,1-6.1,2-9.1,3.1-2.9,1-5.2,2.8-6.9,5.3-1.8,2.6-4.1,4.7-6.7,6.5-4.2,2.8-8.6,5.2-13.3,7.1-2.4,1-4.8,2.2-7.2,3.1-2,.8-4.1,1.5-6.2,1.7-4,.5-6.6-1.2-8-5-.7-2.1-1.2-4.4-1.1-6.5.1-4-2-7.2-3.1-10.5-3,2.5-5.9,4.9-8.8,7.4.2.5.4.9.6,1.2,2.3,4.7,3.4,9.7,3.5,14.8.4,12.8-4,23.8-12.3,33.4-5.7,6.5-12.7,11.1-20.8,14.1-1.5.5-3,1.2-4.3,2.1-2,1.5-1.4,4.2.9,5.1.6.2,1.2.4,1.9.4,2.6.2,5.1,0,7.5-1.2,2.9-1.4,5.7-2.9,8.5-4.3,2.7-1.4,4.9-3.2,6.9-5.5,3.4-4,7.8-5.3,12.9-4.4,2.9.5,5.5,1.6,8,3.2,2.1,1.4,4.1,3,6.1,4.6,2.1,1.7,4.2,3.1,6.8,4,4,1.4,7.2,3.8,9.9,6.9,2.4,2.8,4.8,5.6,7.1,8.5,4.6,5.7,9.7,10.8,15.1,15.7,4.5,4,9.6,6.9,15.3,8.6,7.2,2.2,14.4,4.4,22,4.6,6.8.2,13.5,1.6,20,3.4,3,.8,6,1.6,9.1,2,10,1.2,19.8,3.4,29.6,5.9,9,2.3,17.2,6.3,24.9,11.5,3.7,2.6,7,5.5,9.9,9,1.4,1.7,2.8,3.5,4.2,5.2.1,0,.2-.2.3-.3h0ZM290.5,337.5c-1.8,3.1-2.3,6.6-2.3,10.1,0,2.2-.6,4.3-1.7,6.2-1.3,2.2-3.2,3.5-5.8,3.6-2.7.2-5.2-.5-7.6-1.7-2.2-1.1-4.5-2.1-6.8-3-4.5-1.8-8.7-4-12.8-6.6-2.8-1.8-5.5-3.7-7.3-6.5-2.3-3.5-5.5-5.5-9.3-6.8-3-1-6.1-1.9-9.1-3-4.3-1.5-8.7-2.9-12.5-5.5-4.1-2.8-8.6-4.9-13.2-6.7-2.2-.9-4.4-1.9-6.6-2.8-16-7-32.7-10.4-50.2-8.9-7,.6-13.7,2-20.1,5.1-.4.2-.8.5-1.4.9,4.3-.7,8.3-1.3,12.3-1.9,10.2-1.6,20.2-.8,30.3.9,10.5,1.8,20,6,28.8,11.9,7.1,4.7,14,9.5,21.5,13.5,2.7,1.4,5.4,2.4,8.4,2.7,4,.3,7.6,1.9,10.6,4.6,1.6,1.5,3.1,3,4.7,4.4,4.4,4,9.5,6.7,15.3,8.1,2.9.7,5.6,2,7.9,3.9,1.7,1.4,3.4,2.9,5.1,4.4,1.7,1.5,3.7,2.4,6.1,2.5,1.4,0,2.7.2,4,.4,4.5.7,7.1,3.3,8.1,7.7.5,2.3,1.1,4.5,1.6,6.7,1,4,.3,7.5-2.9,10.2-3.3,2.8-6.9,5.1-11.5,5.6-3.5.4-6.4,2-8.8,4.5-1.5,1.6-2.9,3.2-4.2,4.9-1.6,2.2-3.1,4.4-4.7,6.7-9,12.7-21,21.6-34.9,28.2-12,5.7-24.8,8.9-38,10.4-11.8,1.4-23.5,3.6-35,6.8-8.4,2.3-16.1,6.2-23.5,10.7-8.1,4.8-13.9,11.7-17.9,20.1-.2.5-.4,1.1-.7,1.9.4-.3.6-.4.7-.5.3-.3.5-.6.8-.9,7.2-10,16.9-16.7,28.1-21.2,10.3-4.2,21.1-6.3,32-8.1,6.6-1.1,13.1-2,19.5-3.8,5.4-1.6,10.9-2.4,16.5-2.6,2.1,0,4.1-.3,6.2-.6,6.3-.9,12.5-2.8,18.5-4.8,4.4-1.5,8.4-3.8,12-6.9,6-5.1,11.5-10.7,16.4-16.8,2.3-2.9,4.7-5.7,7.1-8.5,2.2-2.5,4.7-4.9,8-6,4.1-1.5,7.6-3.9,11-6.7,2.9-2.5,6.1-4.4,9.8-5.4,2.3-.7,4.7-1,7.1-.6,3.5.6,6.2,2.3,8.4,5.1,2.6,3.4,6.3,4.9,10,6.8,1.2-2.5,2.3-4.8,3.4-7-.2-.2-.2-.4-.4-.5-.5-.3-1-.6-1.4-.9-12.8-8.1-20.8-19.4-23.3-34.4-1.4-8.3-.5-16.4,3.3-24,.1-.2,0-.4.1-.7-2.9-2.4-5.8-4.9-8.8-7.4-.2.6-.4,1.5-.8,2.2h0ZM413.7,346.5c-2.6,3.7-6,6.6-9.9,8.9-2.9,1.8-5.7,3.8-8.7,5.5-7.4,4.4-13.2,10.5-19,16.7-1.6,1.8-2.2,4-2.2,6.4,0,2.1.2,4.1.1,6.2-.1,2.5.4,4.8,1.6,6.9.6,1,1.3,2,1.8,3.1,1.2,2.6,3.3,3.7,6,3.6,2-.1,4-.5,5.8-1.2,18.2-6.7,30.6-25.6,29.4-45-.3-4.5-1.2-8.8-3.1-13.3-.7.9-1.3,1.5-1.8,2.2h0ZM298.6,360.8c.4,13.6,6,24.8,16.1,33.8,1.4,1.2,2.9,2.3,4.4,3.3,2.7,1.7,5.3,1.3,7.5-1.1,4.4-4.9,9.7-8.6,15.7-11.1.3-.1.6-.3.9-.4,1.3-.4,1.6-1.3,1.2-2.4-.5-1.3-1.2-2.6-2-3.8-.8-1.2-1.9-2.1-2.9-3.2-5.7-6.1-11.7-11.8-19-16-2.6-1.5-5.1-3.3-7.7-4.9-3.5-2.2-6.6-4.8-9-8.2-.5-.8-1.2-1.5-2.1-2.6-2.3,5.6-3.3,10.9-3.1,16.5h0ZM324,511.8c4-3.9,7.7-8.1,10.5-13,1.7-3.1,1.4-6-.9-8.6-.8-.9-1.5-1.9-2.4-2.7-3.9-4-7.8-8-11.8-11.9-1.1.2-2.2.4-3.3.5,0-.2,0-.3-.1-.5.5-.3,1.1-.5,1.6-.8,1.6-.7,2.7-1.9,3.6-3.4.8-1.3,1.1-2.6.5-4.1-.5-1.2-.7-2.4-1-3.7-1.6-7.8-2.3-15.8-2.9-23.8,0-1-.2-2-.4-3.6-.9,1.2-1.5,1.8-1.9,2.5-4.3,7-8.1,14.4-10.2,22.4-.9,3.2-1.4,6.6-1.8,9.9-.4,3.2.8,6,3.2,8.1,1.7,1.5,3.4,2.9,5.1,4.4,2,1.7,4.1,3.4,5.9,5.2,2.8,2.7,4.1,6,4,9.9,0,1.4-.2,2.9-.3,4.3,0,1.9-.3,3.8-.2,5.7,0,1.2.5,2.4.9,4,1-.5,1.4-.6,1.8-.9h0ZM370.3,382.1c-1.2-3-3.7-4-6.8-3.3-2.4.6-4.4,1.9-6.1,3.6-3.9,3.8-6.2,8.4-7.2,13.7-.5,2.6-.6,5.2.2,7.8,1.4,4.8,5.3,6.5,9.7,4.3,1.4-.7,2.8-1.7,3.9-2.8,4.8-4.9,7.2-10.8,7.7-18.4-.3-1.1-.5-3.1-1.2-5h0ZM237.9,227.2c-.3-.5-.6-1-1-1.5,0,0-.2.1-.3.2.4.4.8.9,1.2,1.3h0c0,0,0,0,0,0Z"/>
        </g>
      </g>
    </g>
  </g>
</svg>