<?xml version="1.0" encoding="UTF-8"?><svg id="Layer_1" xmlns="http://www.w3.org/2000/svg" viewBox="0 0 717.09 717.09"><defs><style>.cls-1{fill:#fff;}</style></defs><g id="v1"><g id="elipse1"><circle class="cls-1" cx="358.55" cy="358.55" r="343.55"/><path d="M358.55,15c189.74,0,343.55,153.81,343.55,343.55s-153.81,343.55-343.55,343.55S15,548.28,15,358.55,168.81,15,358.55,15M358.55,0c-48.4,0-95.35,9.48-139.57,28.18-42.7,18.06-81.04,43.91-113.96,76.83s-58.77,71.27-76.83,113.96C9.48,263.19,0,310.15,0,358.55s9.48,95.35,28.18,139.57c18.06,42.7,43.91,81.04,76.83,113.96s71.27,58.77,113.96,76.83c44.21,18.7,91.17,28.18,139.57,28.18s95.35-9.48,139.57-28.18c42.7-18.06,81.04-43.91,113.96-76.83s58.77-71.27,76.83-113.96c18.7-44.21,28.18-91.17,28.18-139.57s-9.48-95.35-28.18-139.57c-18.06-42.7-43.91-81.04-76.83-113.96s-71.27-58.77-113.96-76.83C453.9,9.48,406.94,0,358.55,0h0Z"/></g><g id="dude1"><path d="M623.29,506.71l-.2.17c-4.12,3.36-9.43,4.97-14.71,4.42-5.29-.54-10.17-3.14-13.52-7.26l-1.35-1.67c-.89-1.11-1.78-2.22-2.7-3.31-1.22-1.47-2.63-2.83-4.27-4.12-.1-.02-.2-.04-.3-.05-.58-.11-2.29.29-5.07,1.2-7.89,2.58-15.7,2.2-22.61-1.01-9.04,5.17-19.52,5.33-29.24.41-4.17,1.99-8.74,2.73-13.28,2.13-3.24-.44-6.31-1.54-9.08-3.24-5.85.52-11.91-.98-17.15-4.57-1.15-.79-2.16-1.61-3.04-2.37-10.96,3.72-22.92,1.24-31.6-6.77-5.6.94-11.46-.09-16.63-3.17-3.25-1.92-5.64-4.21-6.93-5.44-2.32-2.22-3.88-4.53-4.85-6.07-1.25-1.98-3.39-4.22-9.81-5.78-1.18-.29-2.72-.54-4.36-.81-.78-.12-1.57-.25-2.36-.39-5.25-.91-10.06-2.67-14.35-5.22-.03.34-.07.7-.12,1.07-.63,5-1.27,9.99-1.91,14.99-1.34,10.41-2.73,21.18-4,31.74-.86,7.1-1.49,14.53-2,20.92-.91,11.19-3.04,21.03-6.52,30.08-.96,2.52-2.14,5.03-3.6,7.67-2,3.64-4.45,6.29-6.9,8.22-2.46,1.92-4.94,3.13-7,3.88-2.24.82-4.56,1.22-6.85,1.22-5.34,0-10.58-2.15-14.41-6.13-3.16-3.28-6.95-8.98-7.13-17.57l-.04-1.84c-.09-3.68-.19-7.84.12-12.23.19-2.52.29-5.11.3-7.86-1.79,1.33-3.37,2.07-4.18,2.45l-.1.04c-5.48,2.86-11.98,3.02-17.6.44-5.65-2.6-9.77-7.67-11.15-13.73-.06-.25-.12-.48-.18-.7-.39-1.43-1.03-3.84-1.17-6.83-.11-2.5.02-4.7.12-6.47.02-.38.04-.76.06-1.13.01-.32.03-.64.05-.96-.26-.23-.54-.46-.82-.69-.67-.57-1.35-1.14-2.02-1.72l-1.95-1.69c-1.06-.92-2.13-1.83-3.18-2.76-6.11-5.33-9.63-12.52-10.08-20.26-.3.27-.6.53-.9.78-6.18,5.24-13.55,7.22-20.68,5.94-5.37,4.88-12.18,7.81-19.73,8.42-4.07.32-8.08-.19-11.86-1.5-2.04,1.74-4.74,3.6-8.14,4.95-4.05,1.59-8.15,2.2-12.09,1.87-6.79,4.13-15.14,4.57-22.45,1.03-.95.48-1.96.95-3.05,1.4-8.61,3.58-18.03,2.91-26.01-1.79-6.67,3.09-14.26,3.56-21.98,1.27-.68-.2-1.33-.41-1.98-.62l-.67-.22h-.02c-1.33-.43-2.1-.64-3.13-.73-2.67,2.14-4.95,4.54-6.87,7.21-.58.8-1.2,1.58-1.89,2.38-1.63,1.86-3.17,2.99-4.2,3.69-7.08,5.03-16.61,4.92-23.57-.29-6.99-5.23-9.78-14.39-6.89-22.62l.1-.32c.25-.77.67-2.07,1.41-3.62,3.76-7.89,8.65-14.67,14.6-20.28.39-.99.86-1.97,1.42-2.9l.52-.88c.18-.3.36-.59.53-.89,5.27-9.57,13.01-16.8,23.02-21.48l1.85-.87c8.86-4.15,18.02-8.44,28.56-11.25,1.24-.33,2.51-.63,3.77-.93,1.68-.4,3.27-.78,4.31-1.15,2.75-.99,5.67-2.3,8.77-3.69l2.03-.9c.48-.21,1.21-.59,1.98-.99.5-.26,1.03-.54,1.59-.82-1.02-2.81-1.54-5.82-1.52-8.95-.51-.81-.96-1.65-1.38-2.51-5.62-.5-10.86-2.76-15.05-6.56-4.85-4.38-7.82-10.35-8.44-16.95-5.68-5.22-9.02-12.02-9.43-19.24-.08-1.37-.05-2.74.08-4.1-1.9-1.33-3.6-2.95-5.07-4.83-4.28-5.49-5.89-12.49-4.58-19.49-.54-.34-1.06-.69-1.56-1.02l-8.17,1.27c-9.4,1.46-18.53-3.9-21.83-12.82s.14-18.94,8.22-23.95l.13-.08c.57-.37,1.63-1.07,3.05-1.76,2.32-1.13,4.72-2.13,7.21-2.99-.72-3.66-.59-7.42.46-11.02,2.09-7.22,7.63-13.04,15.18-15.95,2.89-1.12,5.89-1.81,8.95-2.08-3.31-4-5.15-8.83-5.25-13.96-.08-4.36,1.1-8.56,3.39-12.25-2.27-2.32-4.14-4.91-5.62-7.75-1.75-.75-3.53-1.56-5.38-2.45-5.35-2.57-9.5-6.46-12.35-11.55-.65-1.16-1.18-2.38-1.58-3.62-2.37-5.32-2.38-11.57.35-17.05,4.12-8.29,13.39-12.67,22.41-10.59.87.2,1.75.39,2.63.59,2.15.48,4.38.97,6.72,1.58,13.22,3.45,25.59,8.26,36.75,14.28,3.53,1.9,8.78,4.93,13.74,9.35.27.24.5.46.73.65,4.77,3.15,9.19,6.54,13.38,10.04,1.29-3.15,3.37-5.94,6.08-8.1l.25-.2c4.42-3.5,10.1-4.99,15.66-4.08,1.77.29,3.46.81,5.06,1.53-.71-1.84-1.45-4.22-1.84-7.07-1.22-9.15,3.97-17.96,12.57-21.3,8.61-3.35,18.38-.38,23.66,7.2l.35.49c.43.61.86,1.22,1.27,1.84l9.42,14.26c-.92-1.73-1.83-3.46-2.75-5.19-.2-.37-.39-.74-.66-1.31l-.22-.46c-3.88-7.93-2.09-17.47,4.39-23.46,6.4-5.92,15.89-7.01,23.45-2.71,1.16.61,4.09,2.24,6.68,5.56,1.45,1.85,2.9,3.7,4.35,5.55,3.47,4.43,7.06,8.99,10.57,13.63.26-4.07.53-8.14.79-12.21l.15-2.31c.38-6.05.78-12.31,1.49-18.7,1.13-10.29,9.88-18.05,20.26-17.81,10.34.2,18.82,8.25,19.57,18.57l.28,3.92c.21,2.82.41,5.63.6,8.45l1.32,20.04c.44-.62.89-1.23,1.34-1.85,3.07-4.19,6.24-8.16,9.3-12.01,1.22-1.52,2.44-3.05,3.64-4.59,3.11-3.95,7.32-6.64,12.19-7.79,7.55-1.77,15.43.97,20.24,7.04,4.82,6.07,5.7,14.37,2.26,21.31l-.19.38c-.27.56-.55,1.12-.84,1.68-.81,1.53-1.62,3.06-2.43,4.59l9.97-15.11c.77-1.16,3.12-4.73,7.61-7.52,7.29-4.53,16.66-3.91,23.28,1.55,6.63,5.46,9.03,14.53,5.97,22.55l-.04.13c-.16.44-.43,1.18-.82,2.06l-.78,1.77c7.13-3.13,15.56-1.85,21.45,3.5,2.21,2,3.89,4.41,5,7.03,1.98-1.8,3.89-3.25,5.58-4.54l.63-.47c3.78-2.89,7.57-5.75,11.37-8.62l1.71-1.29c4.95-3.74,9.92-6.16,14.3-8.29.99-.48,1.97-.96,2.95-1.46,11.55-5.85,23.39-9.03,35.51-12.03,1.65-.41,3.06-.56,4.15-.62h.02c.09-.01.17-.02.25-.02,5.46-.43,10.86,1.41,14.94,5.08,2.62,2.37,4.54,5.37,5.62,8.66,2.11,5,2.13,10.75-.14,15.88-2.42,5.46-6.5,9.77-11.8,12.48l-.66.34c-1.67.86-3.69,1.89-6.02,2.84-1.41,2.84-3.28,5.46-5.56,7.78,2.31,3.75,3.47,8.03,3.34,12.45-.16,5.05-1.98,9.8-5.22,13.69,2.77.25,5.51.85,8.18,1.8,7.89,2.8,13.68,8.65,15.89,16.07,1.09,3.66,1.24,7.47.51,11.19,3.36,1.17,7.18,2.87,10.97,5.46,7.81,5.33,10.82,15.4,7.21,24.14-3.6,8.74-12.83,13.76-22.13,12.04l-.31-.05c-.6-.11-1.2-.22-1.79-.35-1.79-.38-3.51-.72-5.16-1-.55.38-1.13.76-1.73,1.14,1.27,6.86-.27,13.79-4.41,19.23-1.48,1.95-3.24,3.63-5.21,5.01.71,7.25-1.57,14.64-6.79,20.65-.81.94-1.69,1.84-2.61,2.7-1.18,12.82-10.96,22.44-23.35,23.55-.43.87-.92,1.73-1.46,2.55.08,3.1-.41,6.11-1.44,8.92,1.09.52,2.24,1.11,3.4,1.77,4.86,2.77,9.98,4.71,15.68,5.92,9.71,2.06,18.26,5.88,25.81,9.25l1.72.77c2.58,1.15,4.9,2.33,7.14,3.48l1.69.86c7.65,3.87,13.94,9.71,18.68,17.36.56.9,1.12,1.8,1.69,2.72l.82,1.3c.68,1.09,1.24,2.24,1.7,3.41,5.87,5.56,10.7,12.26,14.42,20.04.51,1.06.86,1.98,1.07,2.52l.07.18c3.28,8.15.85,17.47-5.98,22.99Z"/><path class="cls-1" d="M574.94,311.03c-3.53,2.72-6.84,5.17-10.9,6.44-2.16.67-4.03,1.94-5.53,3.67-1.98,2.28-2.29,4.62-.92,7.31.54,1.07,1.22,2.06,1.81,3.1.43.76.9,1.52,1.22,2.33,1.5,3.89-.7,6.74-4.88,6.33-1.19-.12-2.37-.38-3.55-.54-2.87-.37-5.75-.54-8.5.64-3.34,1.44-3.9,3.96-1.39,6.58,1.16,1.21,2.54,2.19,3.76,3.35,1.21,1.15,2.5,2.27,3.49,3.6,2.29,3.09,2.14,6.53-.39,9.45-1.04,1.19-2.28,2.26-3.59,3.14-2.87,1.94-4.1,4.56-3.84,7.98.07.95.09,1.92,0,2.87-.29,3.27-2.82,5.6-6.1,5.49-1.34-.04-2.66-.49-3.99-.73-1.64-.29-3.29-.78-4.94-.79-3.69-.02-6.13,2.51-6.21,6.19-.02.96-.04,1.95.18,2.86.5,2.01-.1,3.75-1.48,5.04-2.64,2.47-3.61,5.14-2.6,8.79.81,2.93-.55,5.03-3.28,6.48-1.98,1.05-4.13,1.26-6.3,1.03-3.81-.4-7.61-.98-11.42-1.31-1.65-.14-3.37-.04-4.99.27-3.26.62-5.06,2.94-5.17,6.27-.21,6.18,4.13,11.3,10.33,11.96,2.83.3,4.87,1.43,6.44,3.9,3.03,4.78,5.56,5.1,9.99,1.65.95-.74,1.9-1.47,2.87-2.17,2.98-2.14,6.17-2.47,9.53-1.02,1.46.64,2.93,1.3,4.31,2.09,6.72,3.84,13.87,6.5,21.43,8.11,8.27,1.76,15.89,5.32,23.55,8.73,2.7,1.2,5.31,2.59,7.95,3.92,4.55,2.3,8.03,5.74,10.7,10.04.83,1.34,1.67,2.68,2.53,4.07-.34.09-.52.2-.6.15-10-6.24-20.7-10.6-32.32-12.84-8.62-1.66-17.12-3.97-25.73-5.72-5.08-1.03-10.3-1.34-15.4-2.27-13.43-2.44-26.1-6.68-37.06-15.26-9.63-7.54-18.5-15.73-25.28-26.02-1.18-1.8-2.56-3.47-3.93-5.14-3.02-3.69-6.88-5.9-11.65-6.45-2.9-.33-5.61-1.13-8.04-2.85-1.74-1.23-3.11-2.74-4.13-4.59-.96-1.75-1.29-3.57-.74-5.54.49-1.76.82-3.58,1.29-5.34.81-3,2.78-5.98,7.06-6.02.72,0,1.44-.07,2.16-.12,3.3-.21,6.2-1.36,8.71-3.56,1.74-1.53,3.52-3.02,5.35-4.44,2.12-1.64,4.5-2.68,7.2-3.04,5.29-.71,9.57-3.41,13.35-7.02,2.08-1.99,4.13-4.01,6.21-6,3.03-2.9,6.61-4.39,10.85-4.26,3.53.11,6.76-.89,9.81-2.68,4.08-2.39,7.95-5.04,11.65-7.99,2.86-2.29,5.87-4.46,9.05-6.27,9.82-5.59,20.02-10.34,31.1-12.89,5.56-1.28,16.34-1.93,21.01-.97ZM142.69,311.42c3.38,2.41,6.68,4.91,10.76,6.15,2.16.66,4,2,5.45,3.78,1.73,2.12,2.17,4.41.82,6.89-.61,1.12-1.31,2.19-1.92,3.32-.53.98-1.12,1.97-1.42,3.03-.95,3.33.98,5.77,4.43,5.67,1.27-.04,2.53-.4,3.8-.49,1.99-.14,4.01-.41,5.96-.18,1.53.18,3.11.81,4.42,1.63,1.73,1.08,1.98,2.93.78,4.59-.73,1.02-1.71,1.89-2.64,2.75-1.46,1.36-3.1,2.54-4.45,4.01-3.71,4.02-3.4,8.58.74,12.15.97.83,2.03,1.55,3.04,2.34,2.03,1.57,3.09,3.61,3.02,6.21-.03,1.2-.08,2.4-.03,3.6.16,3.6,2.85,6.11,6.46,5.9,1.26-.07,2.49-.54,3.75-.75,1.8-.3,3.62-.8,5.42-.74,3.24.11,5.45,2.52,5.6,5.75.05,1.03,0,2.09-.14,3.11-.33,2.32.38,4.25,2.02,5.88.45.45.88.93,1.3,1.41,1.09,1.21,1.51,2.61,1.17,4.22-.15.7-.29,1.41-.43,2.11-.59,3.09.45,5.26,3.22,6.78,1.89,1.04,3.95,1.29,6.05,1.11,2.54-.23,5.07-.61,7.61-.91,2.93-.34,5.85-.89,8.82-.26,2.44.51,4.39,1.7,5.13,4.16,1.72,5.65-2.67,13.5-8.43,13.96-4.06.33-6.76,1.94-8.9,5.4-1.99,3.21-4.7,3.42-7.82,1.27-1.31-.91-2.55-1.93-3.83-2.88-3.09-2.3-6.43-2.73-9.94-1.14-2.04.92-3.97,2.07-6.01,2.98-4.01,1.78-8,3.63-12.12,5.11-3.14,1.13-6.48,1.73-9.72,2.6-9.47,2.52-18.25,6.78-27.08,10.91-6.07,2.84-10.74,7.13-13.97,13-.43.78-.91,1.54-1.36,2.31.95-.15,1.55-.54,2.16-.9,8.27-4.77,16.84-8.79,26.26-10.82,8.51-1.83,16.98-3.9,25.5-5.69,5.23-1.09,10.51-2.02,15.82-2.69,5.17-.66,10.26-1.58,15.24-3.12,7.19-2.21,14.33-4.58,20.6-8.91,11.66-8.05,22.25-17.21,30.22-29.11,1.6-2.38,3.43-4.62,5.3-6.8,2.66-3.09,6.12-4.82,10.13-5.45.79-.12,1.57-.3,2.37-.38,2.9-.32,5.37-1.62,7.5-3.48,3.33-2.9,4.98-6.39,3.26-10.88-.42-1.1-.54-2.33-.79-3.5-.77-3.66-3.23-5.85-6.93-6.17-.64-.06-1.28-.08-1.92-.11-3.57-.14-6.68-1.39-9.36-3.77-1.79-1.59-3.66-3.11-5.56-4.56-1.73-1.33-3.68-2.32-5.87-2.58-5.93-.7-10.66-3.61-14.8-7.73-1.76-1.75-3.56-3.45-5.34-5.18-3.19-3.12-6.96-4.69-11.47-4.54-3.19.11-6.23-.65-8.91-2.38-3.89-2.5-7.85-4.96-11.47-7.82-4.48-3.54-9.2-6.65-14.25-9.25-3.2-1.65-6.45-3.19-9.73-4.66-9.81-4.37-19.98-7.22-30.82-7.14-2.28.02-4.57.13-6.91.2.11.39.11.6.2.66ZM237.84,227.28c.19.42.31.9.58,1.26,4.54,5.99,8.92,12.1,13.69,17.89,4.76,5.78,8.81,11.95,12.05,18.69,1.57,3.28,2.71,6.64,2.94,10.3.16,2.55,1.1,4.84,2.8,6.75,1.38,1.55,2.96,2.92,4.33,4.47,2.7,3.04,5.44,6.06,7.94,9.27,1.86,2.39,1.45,4.55-.8,6.56-.65.58-1.44,1.03-2.06,1.64-1.01.98-.96,1.99.17,2.83.7.52,1.48.97,2.29,1.28,4.39,1.67,7.85,4.54,10.82,8.1.75.9,1.64,1.68,2.57,2.63,4.41-10.63,11.54-18.7,20.79-24.86,14.3-9.53,30.11-13.77,47.28-12.74,14.3.85,27.41,5.26,39.14,13.52,8.54,6.01,15.24,13.59,19.32,23.33.09.21.24.39.49.79,1.24-1.36,2.33-2.5,3.36-3.7,2.55-2.95,5.55-5.28,9.19-6.74.96-.39,1.9-.86,2.76-1.44,1.36-.92,1.4-2.03.18-3.16-.65-.59-1.41-1.05-2.05-1.65-1.9-1.78-2.18-3.84-.85-6.05.33-.55.74-1.04,1.11-1.56,2.62-3.66,5.69-6.9,9.04-9.9,3.09-2.77,5.15-6.1,5.34-10.37.13-2.85,1.03-5.48,2.21-8.04,3.21-6.92,7.18-13.33,12.04-19.25,5.01-6.11,9.65-12.53,14.44-18.83.29-.38.43-.86.64-1.29-.91.56-1.54,1.28-2.16,2-12.48,14.68-24.94,29.37-37.46,44.02-2.44,2.85-5,5.61-7.68,8.24-1.52,1.5-3.3,2.8-5.13,3.9-2.14,1.29-5.2.96-6.73-.53-1.86-1.8-2.28-3.98-1.31-6.37.78-1.92,1.61-3.83,2.45-5.72,10.82-24.57,21.65-49.13,32.47-73.7.18-.41.32-.83.48-1.24-.68.42-1.1.98-1.48,1.56-13.13,19.88-26.25,39.76-39.38,59.63-2.07,3.13-4.21,6.22-6.28,9.36-.98,1.48-2.3,2.39-4.02,2.8-4.51,1.09-8.76-1.52-9.89-6.04-.37-1.46-.77-2.94-1.36-4.32-2.04-4.74-.7-9.49,3.59-12.4.99-.67,2.04-1.28,2.94-2.06,2.25-1.94,2.5-4.15.8-6.57-.97-1.37-2.05-2.66-2.99-4.05-2.47-3.62-3.41-7.59-2.2-11.86.72-2.52,1.48-5.09,2.67-7.41,4.63-9.03,9.45-17.96,14.19-26.93.28-.53.53-1.06.79-1.6-.52.12-.81.38-1.04.67-4.2,5.34-8.53,10.59-12.54,16.07-3.87,5.28-7.47,10.76-11.06,16.24-.99,1.51-1.62,3.29-2.26,5-.71,1.89-.53,3.77.49,5.54.52.9,1.03,1.81,1.48,2.74,2.2,4.59,1.35,8.49-2.54,11.79-.37.31-.75.6-1.09.94-.93.91-1.27,2.01-.95,3.29.18.7.4,1.38.6,2.07.69,2.35.8,4.71.18,7.1-.6,2.33-2.04,3.88-4.45,4.08-1.54.13-3.18-.06-4.69-.46-1.28-.34-2.4-1.24-3.64-1.79-4.2-1.85-5.67-5.33-5.89-9.62-.16-3.19-.39-6.38-.6-9.57-1.44-22.01-2.89-44.03-4.34-66.04-.27-4.09-.58-8.18-.88-12.26-.74,6.71-1.12,13.41-1.56,20.11-.88,13.72-1.78,27.44-2.7,41.16-.62,9.33-1.27,18.66-1.95,27.99-.16,2.19-.74,4.43-2.39,5.88-2.58,2.27-5.53,4.14-9.02,4.71-4.3.7-7.05-1.44-7.33-5.78-.12-1.95.05-4.02.59-5.9.73-2.54.62-4.56-1.8-6.04-.14-.08-.25-.19-.37-.3-3.08-2.73-3.98-6.38-2.49-10.21.38-.96.8-1.94,1.38-2.79,1.93-2.83,1.78-5.7.36-8.64-.66-1.37-1.29-2.76-2.11-4.03-2.52-3.89-4.97-7.84-7.74-11.54-5.18-6.91-10.57-13.65-15.88-20.46-.1-.13-.3-.19-.78-.47.31.63.43.9.57,1.17,4.72,8.89,9.44,17.78,14.17,26.67,1.51,2.84,2.74,5.77,3.36,8.94.72,3.67.4,7.18-1.64,10.39-1.07,1.68-2.28,3.27-3.45,4.89-2.05,2.84-1.76,5.08,1.03,7.24,1.07.83,2.27,1.49,3.36,2.31,3.08,2.33,4.47,6.69,3.31,10.31-.73,2.27-1.44,4.56-2.25,6.8-1.07,2.97-3.28,4.71-6.35,5.19-2.98.46-5.54-.4-7.3-3.03-.76-1.13-1.55-2.23-2.3-3.37-14.32-21.67-28.64-43.35-42.97-65.02-.43-.65-.89-1.28-1.33-1.92.21,1.55.78,2.85,1.35,4.15,10.81,24.48,21.63,48.97,32.42,73.46.58,1.31,1,2.69,1.44,4.05.39,1.2.18,2.36-.37,3.48-1.34,2.68-4.51,3.92-7.34,2.54-1.77-.86-3.5-2.01-4.89-3.39-3.34-3.32-6.59-6.75-9.65-10.33-12.22-14.27-24.36-28.61-36.54-42.91-.5-.59-1.13-1.07-1.7-1.6,0,0-.05.05-.05.05ZM300.28,323.48c1.51,1.42,3.11,2.79,4.41,4.39,5.83,7.19,12.46,13.47,20.18,18.62,1.65,1.1,3.09,2.51,4.59,3.82,4.81,4.18,9.22,8.85,15.02,11.8,2.67,1.35,4.77,3.36,6.42,5.95,3.37,5.3,12.08,5.29,15.44-.02,1.6-2.52,3.6-4.55,6.22-5.82,5.37-2.58,9.47-6.79,13.8-10.65,2.75-2.45,5.51-4.84,8.56-6.91,6-4.06,11.12-9.13,15.8-14.61,2.4-2.81,4.84-5.52,7.7-7.86.72-.59,1.38-1.25,2.05-1.86-.24-.59-.38-.96-.54-1.32-4.77-10.86-12.62-18.99-22.72-24.92-15.59-9.15-32.43-12.34-50.3-9.59-12.46,1.92-23.86,6.48-33.81,14.37-7.2,5.72-12.76,12.7-16.35,21.53,1.26,1.09,2.45,2.04,3.55,3.07ZM574.35,204.05c-8.6,2.66-16.59,6.67-24.45,10.97-4.06,2.22-8.29,4.29-11.94,7.08-6.09,4.65-11.94,9.64-17.59,14.82-7.3,6.7-14.35,13.66-21.42,20.62-7.13,7.01-13.85,14.41-19.84,22.42-3.7,4.94-7.68,9.6-11.96,14.04-8.66,8.98-16.8,18.43-24.17,28.51-1.51,2.06-3.03,4.13-4.65,6.1-1.5,1.83-2.35,1.9-4.16.29-1.09-.98-2.04-.97-3.24-.31-3.15,1.73-3.92,3.34-3.1,6.89.2.85.59,1.65.84,2.49.6,1.98,1.21,3.96,1.73,5.96.34,1.31.46,2.68.8,3.99,1.72,6.47,5.62,8.43,11.96,6.11,7.47-2.73,14.44-6.42,21.1-10.74,2.23-1.45,4.31-3.09,5.72-5.38,2.07-3.38,5.08-5.49,8.77-6.67,3.12-1,6.27-1.88,9.42-2.76,5.11-1.43,10-3.29,14.32-6.49,6.43-4.76,13.58-8.09,21.21-10.38,5.05-1.51,10.17-2.79,15.21-4.31,9.6-2.89,19.36-4.12,29.37-3.19.58.05,1.17,0,2.28,0-1.63-1.17-2.81-1.95-3.92-2.83-1.71-1.36-2.12-2.66-1.08-4.61.69-1.29,1.81-2.39,2.83-3.48,1.42-1.5,3.13-2.77,4.37-4.4,2.34-3.08,1.42-5.75-2.26-7.05-2.39-.85-4.84-.96-7.33-.46-4.43.89-8.22,3.09-11.62,5.94-4.11,3.43-8.04,7.07-12.13,10.52-1.57,1.32-3.24,2.67-5.1,3.48-3.96,1.72-7.05.31-8.73-3.63-.16-.37-.32-.73-.45-1.11-.58-1.65-1.81-2.48-3.48-2.4-2.14.1-4.3.31-6.41.68-3.69.66-6.79,2.68-10.01,4.46-2.43,1.34-4.99,2.52-7.6,3.43-3.92,1.36-7.3-1.38-6.71-6.26.3-2.55,1.4-4.82,3.38-6.44,1.9-1.55,4-2.89,6.1-4.17,1.42-.87,2.99-1.51,4.51-2.23,2.31-1.09,3.75-2.91,4.53-5.31.42-1.29.88-2.57,1.28-3.87,1.69-5.49,5.03-9.7,9.73-12.97,6.22-4.33,13.12-6.87,20.52-8.24,2.74-.51,5.49-1.12,8.14-1.97,1.47-.47,2.9-1.37,4.07-2.39,1.46-1.27,1.4-2.83.02-4.19-.96-.94-2.09-1.73-3.2-2.51-1.37-.97-2.85-1.79-4.18-2.81-2.83-2.16-3.34-4.63-1.73-7.81,1.19-2.34,3.02-4.11,5.19-5.53,1.61-1.05,3.27-2,4.89-3.03,2.07-1.32,3.77-3.01,4.68-5.32,1.73-4.41,4.99-7.07,9.35-8.67,2.01-.74,3.93-1.77,5.85-2.75,1.05-.54,1.96-1.3,2.6-2.76-.96.27-1.63.44-2.29.65ZM147.47,304.15c.95-.05,1.91-.07,2.86-.14,7.31-.56,14.57-.16,21.67,1.65,7.51,1.91,14.98,3.98,22.4,6.2,6.54,1.96,12.81,4.7,18.32,8.74,5.59,4.11,11.73,6.71,18.38,8.43,3.31.86,6.56,2.01,9.77,3.21,2.37.89,4.29,2.48,5.65,4.65,1.92,3.06,4.61,5.24,7.63,7.15,6.17,3.9,12.61,7.23,19.44,9.8,1.9.71,3.81,1.15,5.85,1.02,2.07-.13,3.8-.95,4.71-2.81.91-1.84,1.75-3.78,2.17-5.78.67-3.13,1.13-6.28,2.56-9.2.31-.64.47-1.36.63-2.06.57-2.52-.06-4.51-2.39-5.94-2.1-1.29-2.43-1.36-4.38.16-1.35,1.05-2.16,1.07-3.35-.12-.79-.79-1.48-1.68-2.13-2.59-8.39-11.62-17.53-22.62-27.52-32.9-4.19-4.31-7.99-8.91-11.63-13.69-6.5-8.53-13.62-16.52-21.42-23.9-4.7-4.45-9.5-8.81-14-13.46-6.81-7.03-14.21-13.35-21.86-19.42-1.5-1.19-3.12-2.24-4.76-3.21-3.17-1.87-6.35-3.7-9.6-5.43-7.55-4.02-15.18-7.88-23.4-10.41-.73-.23-1.48-.42-2.61-.74.99,1.76,2.21,2.64,3.57,3.29,2.09,1,4.2,1.96,6.34,2.83,3.5,1.43,6.13,3.72,7.57,7.26,1.29,3.19,3.63,5.38,6.55,7.07,1.65.96,3.4,1.88,4.8,3.15,1.51,1.37,2.92,2.99,3.91,4.76,1.64,2.93.99,5.33-1.62,7.41-1.06.84-2.26,1.5-3.37,2.29-1.36.97-2.79,1.89-4.02,3.02-1.63,1.5-1.65,3.06.05,4.5,1.13.96,2.51,1.78,3.91,2.22,2.66.83,5.4,1.47,8.14,1.97,7.82,1.43,15.05,4.19,21.48,8.96,3.98,2.95,6.83,6.68,8.44,11.37.57,1.66,1.13,3.33,1.69,5,.74,2.23,2.11,3.92,4.25,4.95,1.51.73,3,1.51,4.52,2.21,2.42,1.11,4.62,2.55,6.48,4.46,2.15,2.21,3.41,4.83,3.18,7.99-.25,3.43-2.71,5.39-6.07,4.71-1.55-.31-3.1-.83-4.52-1.52-2.08-1.01-4.06-2.22-6.05-3.41-3.78-2.26-7.86-3.53-12.24-3.81-3.65-.23-4.37.23-5.81,3.57-.09.22-.19.44-.29.66-1.27,2.67-3.25,3.95-6.17,3.46-1.68-.28-3.34-1.03-4.83-1.88-1.23-.69-2.2-1.83-3.29-2.77-3.92-3.4-7.8-6.86-11.79-10.19-2.72-2.27-5.78-4-9.17-5.09-3.22-1.03-6.44-1.17-9.63.06-3.42,1.32-4.28,3.86-2.1,6.8,1.22,1.64,2.91,2.93,4.33,4.43,1.03,1.09,2.21,2.14,2.88,3.44,1.09,2.09.62,3.7-1.08,4.82-1.1.73-2.13,1.57-3.19,2.37.05.15.11.3.16.45ZM360.21,550.6c.92-1.67,1.76-3.41,2.45-5.19,3.03-7.89,4.57-16.11,5.25-24.52.59-7.25,1.21-14.5,2.08-21.71,1.89-15.62,3.95-31.23,5.93-46.84.12-.95.15-1.92.22-2.88-.79.73-1.13,1.52-1.46,2.3-2.41,5.74-4.77,11.51-7.27,17.21-.73,1.66-1.72,3.28-2.9,4.65-1.84,2.13-4.21,1.54-4.76-1.19-.37-1.84-.48-3.84-.21-5.69,1.34-9.33,2.83-18.64,4.3-27.95,1.07-6.73,1.68-13.48.8-20.28-.08-.63-.09-1.28-.11-1.91-.02-.55,0-1.1,0-1.65,1.94,6.5,2.49,13.09,1.72,19.7-.99,8.57-2.33,17.09-3.47,25.65-.45,3.4-.81,6.82-1.15,10.23-.08.82-.11,1.74.85,2.35,1.94-1.38,2.69-3.45,3.44-5.42,3.22-8.43,6.45-16.86,9.46-25.36,3.11-8.79,4.14-17.86,3.08-27.16-.64-5.64-2.02-10.99-5.31-15.72-.33-.48-.75-.89-.98-1.16-1.98,2.68-3.74,5.35-5.79,7.77-1.99,2.34-4.54,4.03-7.55,4.89-4.31,1.23-8.05-.5-9.85-4.6-1.15-2.62-1.42-5.39-1.1-8.22.4-3.53,1.38-6.88,2.97-10.06.26-.51.42-1.08.73-1.9-1.27.17-2.23.19-3.14.42-10.77,2.73-18.96,8.96-24.61,18.48-3.04,5.12-4.65,10.67-4.35,16.69.13,2.71.22,5.43.4,8.14.63,9.16,1.2,18.34,2.01,27.49.29,3.32,1.14,6.6,1.84,9.87.24,1.11.61,2.28,1.92,3.3.25-2.28.48-4.25.67-6.21.77-7.95,1.72-15.89,2.22-23.86.39-6.19,1.83-11.85,5.07-17.24,2.41-4,3.98-8.51,5.92-12.8.25-.55.48-1.11.71-1.67.15.05.31.09.46.14-.4,1.6-.63,3.26-1.23,4.78-1.77,4.45-3.62,8.87-5.56,13.24-1.41,3.17-2.33,6.41-2.62,9.9-.64,7.56-1.48,15.1-2.22,22.65-.08.81-.01,1.63-.01,2.76.68-.61,1.07-.98,1.5-1.32,3.62-2.9,7.21-5.81,10.87-8.66.94-.73,2.01-1.32,3.1-1.8,2.76-1.22,4.71-.39,5.64,2.44.44,1.35.7,2.8.83,4.22.69,8.04,1.34,16.08,1.94,24.13.73,9.8,1.35,19.61,2.12,29.4.7,8.94,1.03,17.86.38,26.82-.3,4.05-.12,8.14-.04,12.2.03,1.41.33,2.85,1.54,4.11,1.63-.59,2.55-1.72,3.24-2.97ZM589.26,474.43c-1.55-.83-3.08-1.71-4.67-2.44-11-5.05-22.66-7.69-34.61-9.17-6.82-.85-13.65-1.53-20.28-3.5-4.45-1.32-9.01-2.15-13.67-2.38-2.71-.13-5.43-.31-8.12-.62-7.51-.86-14.7-3.02-21.79-5.54-3.8-1.35-7.22-3.43-10.3-6.02-1.77-1.49-3.48-3.07-5.2-4.62-5.25-4.72-9.72-10.15-14.08-15.68-4-5.08-8.72-9.28-14.73-11.99-2.21-1-4.12-2.7-6.11-4.16-.96-.71-1.78-1.6-2.68-2.4-4.87-4.29-10.49-5.49-16.77-4.11-2.34.51-4.23,1.66-6.01,3.27-1.87,1.7-3.89,3.35-6.09,4.57-4.78,2.66-9.43,5.65-15.01,7.35,3.22,2.13,5.3,4.94,7.12,7.96.91,1.5,1.82,3.01,2.74,4.51,3.39,5.49,8.3,8.73,14.65,9.84,2.68.47,5.38.83,8.01,1.47,9.07,2.21,16.86,6.38,22,14.56.51.81,1.07,1.62,1.76,2.27,1.03.98,2.1,1.98,3.32,2.7,1.8,1.07,3.67.95,5.36-.42.81-.65,1.58-1.36,2.42-1.96,1.94-1.39,3.89-1.39,5.72.14.97.81,1.78,1.83,2.56,2.83.88,1.13,1.59,2.41,2.48,3.53,4.07,5.07,10.64,6.11,16.06,2.59.6-.39,1.19-.81,1.82-1.16,3.14-1.79,6.08-1.64,8.9.67,1.35,1.1,2.43,2.53,3.68,3.76,1.08,1.06,2.13,2.18,3.37,3.03,2.08,1.43,5.17,1.78,7.48-.42,2.31-2.2,4.41-1.68,6.13,1.03.38.61.69,1.27,1.1,1.85,1.69,2.39,3.89,2.7,6.14.84.86-.71,1.62-1.54,2.46-2.28,1.39-1.22,3.05-1.91,4.86-1.5,1.37.31,2.7.93,3.94,1.61,1.6.88,3.04,2.07,4.65,2.95,3.84,2.1,7.66,2.44,11.53-.16,2.69-1.81,5.77-2.69,8.98-3.13,2.32-.32,4.54-.02,6.37,1.44,3.14,2.5,6.58,2.72,10.19,1.54,4.78-1.56,9.58-2.86,14.94-1.86-.35-.44-.45-.69-.64-.79ZM140.12,476.4c.76.24,1.52.5,2.28.73,3.56,1.06,6.9.9,9.97-1.54,1.83-1.46,4.03-1.8,6.36-1.51,3.55.45,6.83,1.64,9.84,3.54,2.72,1.72,5.56,1.94,8.47.73,1.61-.67,3.15-1.53,4.68-2.39.9-.51,1.7-1.19,2.58-1.75,3.54-2.26,6.29-2,9.32.84.64.6,1.24,1.26,1.94,1.79,1.94,1.49,3.92,1.27,5.48-.62.5-.61.88-1.33,1.29-2.01,1.86-3.12,3.81-3.51,6.61-1.11,1.9,1.63,3.86,1.67,6.02.82,1.85-.73,3.17-2.09,4.46-3.54,1.17-1.31,2.3-2.68,3.65-3.79,2.91-2.41,5.85-2.56,9.1-.66.97.56,1.88,1.21,2.83,1.8,1.75,1.1,3.66,1.57,5.72,1.41,4.06-.32,7.33-2.07,9.73-5.38,1.08-1.49,2.03-3.08,3.22-4.47,2.51-2.93,4.93-3.1,7.88-.69.31.25.6.53.91.78,2.55,2.09,4.77,2.25,7.32.08,1.56-1.32,2.96-2.94,4.08-4.66,3.54-5.43,8.48-9.05,14.3-11.63,4.05-1.8,8.33-2.74,12.69-3.4,3.89-.59,7.66-1.5,11.06-3.65,2.49-1.58,3.99-3.65,4.18-6.58.22-3.42.41-6.85.5-10.28.11-4.39-1.7-7.85-5.24-10.47-1.66-1.23-3.14-2.71-4.77-3.98-1.12-.88-2.27-1.85-3.57-2.34-3.59-1.34-7.32-1.57-11.08-.7-3.63.84-6.54,2.92-9.17,5.43-2.45,2.34-5.07,4.4-8.19,5.77-4.24,1.88-7.85,4.62-10.91,8.07-1.91,2.15-3.78,4.34-5.54,6.62-4.95,6.44-10.66,12.15-16.96,17.21-2.65,2.13-5.62,4.08-8.76,5.32-9.01,3.57-18.31,6.17-28.11,6.53-5.61.21-11.13,1.01-16.55,2.5-3.08.84-6.18,1.68-9.33,2.17-5.92.93-11.9,1.45-17.81,2.42-9.65,1.58-19.07,4.03-27.97,8.18-1.78.83-3.5,1.81-5.24,2.72,5.03-.13,7.9.16,12.72,1.7ZM576.05,201.82c-.38.04-.78.02-1.15.12-10.7,2.65-21.36,5.44-31.28,10.46-4.84,2.45-9.87,4.57-14.24,7.87-4.34,3.27-8.68,6.54-12.99,9.84-1.71,1.31-3.46,2.6-5.05,4.05-7.79,7.12-15.55,14.27-23.27,21.46-1.51,1.41-2.84,3.03-4.15,4.64-5.81,7.12-11.63,14.24-18.35,20.56-1.04.98-1.88,2.17-2.78,3.29-1.45,1.8-2.86,3.64-4.32,5.43-1.97,2.41-4.11,4.7-5.95,7.21-3.26,4.43-7.29,8.04-11.53,11.46-1.84,1.49-3.94,2.47-6.24,2.92-3.4.66-6.02,2.48-8.17,5.09-1.57,1.91-3.07,3.89-4.66,5.79-4.05,4.86-8.24,9.57-13.65,13.03-1.47.94-2.79,2.15-4.07,3.34-3.21,3-6.41,6.03-9.52,9.13-2.9,2.9-6.03,5.47-9.62,7.48-1.18.66-2.3,1.46-3.35,2.32-5.16,4.27-10.4,8.45-15.39,12.91-4.46,3.98-9.66,3.62-13.51,1.23-2.75-1.72-5.37-3.76-7.69-6.03-3.79-3.71-7.87-7.07-12.29-9.92-4.27-2.75-8.19-5.82-11.75-9.41-2.25-2.27-4.55-4.5-6.9-6.67-1.7-1.57-3.4-3.21-5.32-4.46-5.11-3.32-9.14-7.72-13.01-12.32-1.75-2.08-3.39-4.25-5.12-6.35-2.2-2.68-4.9-4.44-8.36-5.24-1.9-.44-3.84-1.28-5.41-2.42-2.58-1.86-5.17-3.85-7.25-6.23-5.31-6.07-10.32-12.39-15.48-18.59-1.12-1.35-2.32-2.64-3.53-3.9-.99-1.04-2.14-1.94-3.09-3.01-3.97-4.49-8.07-8.88-11.79-13.58-3.64-4.6-7.7-8.75-11.97-12.73-9.7-9.05-19.17-18.37-30.34-25.69-1-.65-1.9-1.46-2.79-2.26-3-2.68-6.38-4.77-9.92-6.68-10.25-5.53-21.06-9.59-32.31-12.53-2.91-.76-5.86-1.37-8.8-2.04.66.55,1.4.83,2.15,1.06,7.79,2.45,15.42,5.27,22.62,9.16,3.66,1.98,7.33,3.92,10.9,6.05,2.74,1.63,5.48,3.33,7.95,5.32,7.34,5.92,14.58,11.97,21.79,18.05,1.76,1.49,3.28,3.26,4.87,4.95,3.23,3.43,6.42,6.91,9.64,10.35,1.86,1.98,3.75,3.93,5.61,5.91,3.61,3.84,7.15,7.77,10.84,11.53,4.21,4.29,8.1,8.83,11.74,13.61,6.74,8.85,13.77,17.44,21.78,25.2,3.99,3.87,7.51,8.07,9.93,13.12.43.9,1.08,1.69,1.63,2.53,3.38-2.44,4.63-2.54,7.94-.23,1.34.94,2.4,2.29,3.53,3.5,1.68,1.81,3.22,3.75,4.98,5.46,2.06,2,4.44,3.68,6.43,5.73,7.15,7.39,15.04,13.85,23.53,19.64,1.84,1.26,3.57,2.71,5.24,4.18,4.32,3.79,8.59,7.66,12.89,11.48.66.58,1.36,1.12,2.09,1.61,3.17,2.14,6,3.52,9.79-.37.06-.06.12-.11.18-.15,3.41-2.61,7.01-4.06,11.36-2.33,1.62.64,3.26.33,4.68-.94,3.63-3.25,7.3-6.47,11-9.63,1.76-1.5,3.59-2.94,5.48-4.27,6.93-4.89,13.71-9.95,19.66-16.06,2.79-2.85,5.73-5.58,8.8-8.12,2.25-1.86,4.33-3.79,5.86-6.27,1.13-1.83,2.71-3.12,4.56-4.14,2.23-1.24,4.36-1.58,6.29.56.13.14.42.12.81.22.5-.81,1.08-1.57,1.48-2.42,2.36-5,5.8-9.17,9.77-12.94,7.09-6.74,13.35-14.24,19.29-21.97,5.57-7.24,11.46-14.15,17.9-20.63,4.56-4.59,8.85-9.45,13.27-14.18,2.83-3.04,5.67-6.08,8.51-9.1,1.81-1.92,3.48-4,5.48-5.69,7.57-6.4,15.22-12.71,22.89-18.97,1.72-1.41,3.63-2.62,5.55-3.75,3.45-2.02,6.95-3.95,10.47-5.85,5.56-3,11.27-5.69,17.26-7.72,2.64-.89,5.28-1.79,7.92-2.68,0-.12,0-.24,0-.37ZM610.71,491.16c-.2-.5-.38-1.01-.61-1.5-4.23-8.83-10.47-15.88-19.02-20.67-4.73-2.65-9.7-4.89-14.63-7.17-2.38-1.1-4.86-2.1-7.4-2.75-10.45-2.7-20.99-4.99-31.71-6.34-11.37-1.43-22.55-3.56-33.35-7.53-18.62-6.84-33.96-17.91-45.17-34.43-1.12-1.65-2.25-3.31-3.49-4.87-1.14-1.44-2.37-2.81-3.66-4.11-2.27-2.27-5.01-3.78-8.21-4.12-4.16-.44-7.57-2.37-10.79-4.84-4.01-3.07-5.19-6.83-3.73-11.65.55-1.82,1.02-3.68,1.35-5.56.84-4.73,3.63-7.55,8.37-8.26,1.19-.18,2.38-.37,3.57-.39,2.62-.03,4.78-1.05,6.7-2.78,1.66-1.5,3.35-2.97,5.09-4.37,2.08-1.67,4.42-2.86,7.03-3.49,6.28-1.5,11.78-4.45,16.48-8.88,1.22-1.15,2.44-2.31,3.66-3.46,3.13-2.97,6.84-4.65,11.15-5.01,2.58-.22,5.01-.87,7.29-2.16,5.77-3.28,11.56-6.49,17-10.33,3.46-2.44,7.1-4.62,10.73-6.8,5.02-3.02,10.37-5.28,16.02-6.91,7.11-2.06,14.4-2.92,21.74-3.39,9-.58,17.86.56,26.64,2.46.5.11,1.01.19,1.51.28-3.18-2.17-6.71-3.39-10.35-4.27-9.81-2.36-19.72-2.92-29.75-1.57-8.98,1.21-17.8,3.05-26.24,6.41-5.79,2.31-11.49,4.82-17.21,7.3-1.53.67-3.09,1.39-4.45,2.35-5.43,3.83-11.51,6.2-17.78,8.19-3.04.97-6.07,2-9.07,3.09-2.85,1.03-5.18,2.77-6.89,5.34-1.76,2.63-4.08,4.7-6.69,6.45-4.2,2.81-8.63,5.16-13.32,7.07-2.44.99-4.78,2.23-7.24,3.15-2,.75-4.07,1.5-6.17,1.73-4.02.45-6.63-1.19-7.97-5.03-.73-2.07-1.18-4.37-1.13-6.55.1-4.02-1.95-7.21-3.14-10.5-3,2.5-5.91,4.94-8.84,7.38.24.53.38.9.56,1.25,2.29,4.67,3.36,9.66,3.5,14.82.35,12.75-3.99,23.82-12.33,33.36-5.69,6.51-12.7,11.13-20.84,14.08-1.49.54-3.03,1.16-4.27,2.1-2.01,1.52-1.44,4.23.93,5.1.59.22,1.23.37,1.86.42,2.58.2,5.12-.02,7.48-1.19,2.86-1.43,5.7-2.89,8.55-4.34,2.67-1.36,4.93-3.17,6.87-5.49,3.37-4.04,7.81-5.32,12.93-4.44,2.88.5,5.55,1.57,7.96,3.18,2.12,1.42,4.14,3,6.13,4.6,2.07,1.67,4.25,3.12,6.77,4.01,3.95,1.38,7.21,3.76,9.92,6.91,2.4,2.79,4.77,5.6,7.09,8.45,4.59,5.67,9.7,10.83,15.14,15.68,4.5,4.01,9.58,6.88,15.32,8.64,7.19,2.2,14.4,4.37,21.98,4.64,6.84.25,13.47,1.58,20.04,3.39,3,.83,6.05,1.62,9.12,1.99,10.02,1.19,19.83,3.39,29.6,5.86,9.03,2.29,17.25,6.26,24.86,11.55,3.69,2.57,7.04,5.53,9.92,8.99,1.43,1.71,2.81,3.46,4.22,5.19.11-.09.21-.17.32-.26ZM290.47,337.47c-1.83,3.15-2.32,6.56-2.33,10.14,0,2.17-.59,4.26-1.69,6.18-1.3,2.25-3.2,3.49-5.82,3.64-2.71.16-5.21-.54-7.63-1.71-2.23-1.07-4.47-2.13-6.77-3.03-4.48-1.76-8.72-3.98-12.78-6.56-2.78-1.77-5.46-3.74-7.26-6.53-2.26-3.49-5.5-5.48-9.31-6.75-3.03-1.01-6.09-1.94-9.11-2.97-4.31-1.47-8.67-2.88-12.48-5.45-4.14-2.79-8.58-4.92-13.22-6.7-2.24-.86-4.41-1.87-6.61-2.83-16.01-7.02-32.68-10.42-50.19-8.91-6.96.6-13.74,2.05-20.09,5.14-.44.21-.83.51-1.4.86,4.25-.66,8.25-1.28,12.26-1.91,10.16-1.58,20.25-.79,30.29.93,10.48,1.8,19.99,6,28.82,11.87,7.05,4.69,14.04,9.47,21.54,13.46,2.66,1.41,5.36,2.41,8.37,2.67,4.04.34,7.57,1.88,10.56,4.63,1.59,1.46,3.14,2.96,4.74,4.41,4.4,4.02,9.53,6.71,15.28,8.15,2.94.73,5.57,1.97,7.88,3.88,1.73,1.42,3.41,2.9,5.09,4.38,1.74,1.54,3.72,2.41,6.07,2.5,1.35.05,2.71.22,4.05.43,4.48.71,7.14,3.29,8.08,7.7.48,2.26,1.06,4.49,1.62,6.73,1,3.97.31,7.5-2.91,10.21-3.33,2.81-6.94,5.1-11.46,5.58-3.46.37-6.41,1.96-8.81,4.46-1.49,1.56-2.89,3.21-4.19,4.92-1.64,2.16-3.13,4.44-4.7,6.66-8.97,12.67-21.04,21.64-34.85,28.19-11.98,5.68-24.8,8.85-37.99,10.39-11.84,1.39-23.54,3.65-35.03,6.78-8.36,2.28-16.08,6.24-23.51,10.66-8.05,4.8-13.9,11.68-17.92,20.12-.25.52-.39,1.08-.68,1.91.43-.31.59-.38.69-.5.26-.3.51-.61.75-.94,7.18-9.99,16.92-16.68,28.13-21.25,10.26-4.18,21.1-6.34,31.99-8.1,6.55-1.06,13.11-1.95,19.5-3.82,5.39-1.57,10.91-2.39,16.53-2.63,2.07-.09,4.15-.29,6.2-.59,6.34-.94,12.46-2.79,18.52-4.83,4.45-1.5,8.41-3.82,11.99-6.87,5.98-5.1,11.47-10.66,16.42-16.77,2.31-2.86,4.67-5.68,7.09-8.45,2.23-2.55,4.74-4.85,7.96-6.02,4.14-1.5,7.65-3.89,10.97-6.71,2.88-2.45,6.1-4.38,9.78-5.44,2.33-.67,4.68-1,7.1-.56,3.46.62,6.25,2.31,8.4,5.1,2.58,3.35,6.31,4.92,9.97,6.79,1.22-2.52,2.32-4.8,3.41-7.03-.16-.21-.23-.37-.35-.45-.47-.31-.95-.58-1.42-.88-12.79-8.08-20.79-19.44-23.33-34.41-1.41-8.31-.55-16.41,3.29-24.05.1-.19.08-.44.13-.73-2.93-2.44-5.84-4.88-8.8-7.35-.23.65-.38,1.53-.8,2.25ZM413.73,346.49c-2.63,3.72-6.02,6.57-9.9,8.91-2.94,1.78-5.74,3.78-8.7,5.52-7.4,4.37-13.21,10.53-19.01,16.71-1.65,1.76-2.21,4.02-2.22,6.4,0,2.07.2,4.14.12,6.21-.1,2.47.43,4.75,1.59,6.91.57,1.05,1.27,2.04,1.77,3.12,1.19,2.58,3.32,3.71,5.97,3.57,1.96-.1,3.97-.52,5.81-1.2,18.22-6.74,30.56-25.63,29.44-45.03-.26-4.46-1.2-8.8-3.08-13.28-.72.86-1.31,1.47-1.8,2.16ZM298.56,360.79c.42,13.6,5.97,24.84,16.1,33.84,1.37,1.22,2.86,2.33,4.41,3.3,2.73,1.71,5.33,1.27,7.48-1.13,4.4-4.9,9.67-8.57,15.71-11.15.29-.13.59-.26.89-.36,1.28-.38,1.65-1.34,1.23-2.43-.51-1.32-1.16-2.63-1.97-3.78-.82-1.17-1.91-2.15-2.89-3.2-5.72-6.07-11.73-11.78-19.02-16-2.63-1.52-5.11-3.28-7.7-4.87-3.52-2.16-6.58-4.79-9-8.16-.55-.77-1.2-1.47-2.1-2.56-2.26,5.56-3.31,10.94-3.13,16.49ZM324.05,511.76c3.98-3.94,7.73-8.08,10.5-13,1.72-3.07,1.44-5.96-.89-8.63-.79-.9-1.53-1.85-2.36-2.71-3.91-3.99-7.84-7.96-11.76-11.93-1.1.17-2.21.35-3.32.52-.04-.16-.08-.32-.12-.48.55-.26,1.09-.53,1.64-.77,1.6-.71,2.73-1.92,3.6-3.39.75-1.28,1.12-2.57.49-4.08-.49-1.17-.73-2.44-.98-3.69-1.56-7.84-2.34-15.79-2.94-23.75-.08-1-.21-1.99-.38-3.58-.88,1.16-1.46,1.8-1.9,2.53-4.3,7.05-8.06,14.36-10.22,22.36-.87,3.22-1.35,6.56-1.75,9.87-.4,3.21.76,5.97,3.22,8.13,1.68,1.47,3.38,2.92,5.07,4.39,1.99,1.73,4.06,3.37,5.94,5.21,2.75,2.7,4.11,6.04,3.99,9.93-.04,1.44-.21,2.87-.28,4.3-.09,1.91-.26,3.83-.17,5.74.06,1.22.51,2.42.87,3.99.95-.5,1.44-.63,1.76-.94ZM370.27,382.12c-1.18-2.96-3.71-4.05-6.82-3.33-2.41.56-4.37,1.91-6.1,3.61-3.87,3.81-6.19,8.44-7.25,13.74-.53,2.62-.58,5.23.16,7.81,1.35,4.75,5.26,6.55,9.67,4.33,1.4-.71,2.75-1.66,3.85-2.78,4.8-4.85,7.22-10.78,7.69-18.43-.26-1.14-.48-3.15-1.2-4.96ZM237.89,227.24c-.33-.5-.65-1-.98-1.5-.09.07-.17.14-.26.2.39.45.79.9,1.18,1.34,0,0,.05-.05.05-.05Z"/></g></g></svg>